<svg xmlns="http://www.w3.org/2000/svg" viewBox="0 0 373.557 373.557" style="enable-background:new 0 0 373.557 373.557" xml:space="preserve"><path d="M317.612 23.392h-70V7.5a7.5 7.5 0 0 0-7.5-7.5H133.445a7.5 7.5 0 0 0-7.5 7.5v52.613a7.5 7.5 0 0 0 7.5 7.5h106.667a7.5 7.5 0 0 0 7.5-7.5V38.392h62.5v320.165H63.445V38.392h30.333a7.5 7.5 0 0 0 0-15H55.945a7.5 7.5 0 0 0-7.5 7.5v335.165a7.5 7.5 0 0 0 7.5 7.5h261.667a7.5 7.5 0 0 0 7.5-7.5V30.892a7.5 7.5 0 0 0-7.5-7.5zm-85 29.221h-91.667V15h91.667v37.613z"/><path d="M140.945 100.113a7.5 7.5 0 0 0-7.5-7.5h-43.75a7.5 7.5 0 0 0-7.5 7.5v43.75a7.5 7.5 0 0 0 7.5 7.5h43.75a7.5 7.5 0 0 0 7.5-7.5v-43.75zm-15 36.25h-28.75v-28.75h28.75v28.75zM163.445 129.488h107.5c4.143 0 7.5-3.358 7.5-7.5s-3.357-7.5-7.5-7.5h-107.5a7.5 7.5 0 0 0 0 15zM140.945 183.446a7.5 7.5 0 0 0-7.5-7.5h-43.75a7.5 7.5 0 0 0-7.5 7.5v43.75a7.5 7.5 0 0 0 7.5 7.5h43.75a7.5 7.5 0 0 0 7.5-7.5v-43.75zm-15 36.25h-28.75v-28.75h28.75v28.75zM163.445 212.821h107.5c4.143 0 7.5-3.358 7.5-7.5s-3.357-7.5-7.5-7.5h-107.5a7.5 7.5 0 0 0 0 15zM133.445 274.28a7.5 7.5 0 0 0 0-15h-43.75a7.5 7.5 0 0 0-7.5 7.5v43.75a7.5 7.5 0 0 0 7.5 7.5h43.75a7.5 7.5 0 0 0 0-15h-36.25v-28.75h36.25zM163.445 296.155h107.5c4.143 0 7.5-3.358 7.5-7.5s-3.357-7.5-7.5-7.5h-107.5a7.5 7.5 0 0 0 0 15z"/></svg>